<svg viewBox="0 0 1060 320" xmlns="http://www.w3.org/2000/svg" font-family="'JetBrains Mono',monospace">
<defs>
<marker id="ar" markerWidth="9" markerHeight="9" refX="7" refY="4.5" orient="auto"><path d="M0 0L9 4.5L0 9z" fill="#A8C090"/></marker>
</defs>
<!-- stage 1 -->
<rect x="20" y="116" width="170" height="88" rx="4" fill="#1E2126" stroke="#252830"/>
<text x="105" y="150" fill="#fff" font-size="16" font-weight="700" text-anchor="middle" font-family="Archivo,sans-serif">AI agent</text>
<text x="105" y="172" fill="#7E858E" font-size="11" text-anchor="middle">any platform</text>
<line x1="190" y1="160" x2="252" y2="160" stroke="#A8C090" stroke-width="1.5" marker-end="url(#ar)"/>
<text x="221" y="150" fill="#7E858E" font-size="9.5" text-anchor="middle">action</text>
<!-- stage 2 MOSS -->
<rect x="262" y="56" width="300" height="208" rx="5" fill="#1E2126" stroke="#A8C090" stroke-opacity="0.5"/>
<text x="284" y="86" fill="#A8C090" font-size="11" letter-spacing="2">MOSS</text>
<rect x="284" y="100" width="256" height="44" rx="3" fill="#16181B" stroke="#252830"/>
<text x="300" y="120" fill="#fff" font-size="12.5">Policy engine</text>
<text x="300" y="136" fill="#7E858E" font-size="10">ALLOW / BLOCK / HOLD</text>
<rect x="284" y="150" width="256" height="44" rx="3" fill="#16181B" stroke="#252830"/>
<text x="300" y="170" fill="#fff" font-size="12.5">Sign</text>
<text x="300" y="186" fill="#7E858E" font-size="10">ML-DSA-44 &#183; FIPS 204</text>
<rect x="284" y="200" width="256" height="44" rx="3" fill="#16181B" stroke="#252830"/>
<text x="300" y="220" fill="#fff" font-size="12.5">Govern</text>
<text x="300" y="236" fill="#7E858E" font-size="10">kill switch &#183; human-in-the-loop</text>
<line x1="562" y1="160" x2="624" y2="160" stroke="#A8C090" stroke-width="1.5" marker-end="url(#ar)"/>
<text x="593" y="150" fill="#7E858E" font-size="9.5" text-anchor="middle">signed event</text>
<!-- stage 3 outputs -->
<rect x="634" y="60" width="406" height="48" rx="3" fill="#1E2126" stroke="#252830"/>
<text x="652" y="89" fill="#fff" font-size="13">Immutable evidence trail</text>
<text x="1022" y="89" fill="#7E858E" font-size="10" text-anchor="end">7-year, hash-chained</text>
<rect x="634" y="116" width="406" height="48" rx="3" fill="#1E2126" stroke="#252830"/>
<text x="652" y="145" fill="#fff" font-size="13">SIEM</text>
<text x="1022" y="145" fill="#7E858E" font-size="10" text-anchor="end">Splunk &#183; Sentinel &#183; Datadog</text>
<rect x="634" y="172" width="406" height="48" rx="3" fill="#1E2126" stroke="#252830"/>
<text x="652" y="201" fill="#fff" font-size="13">Compliance reports</text>
<text x="1022" y="201" fill="#7E858E" font-size="10" text-anchor="end">any framework</text>
<rect x="634" y="228" width="406" height="48" rx="3" fill="#1E2126" stroke="#252830"/>
<text x="652" y="257" fill="#fff" font-size="13">Trust Passport</text>
<text x="1022" y="257" fill="#7E858E" font-size="10" text-anchor="end">binary, offline-verifiable</text>
</svg>
